#!OML:ASF H:\GeneralSubjects\Female5\Project 1\Capture day 1\Session 1\Female5.ASF
:FULLY-SPECIFIED
:DEGREES
454
root -21.0294 15.5318 5.02619 -170.174 -29.9524 -171.74
lowerback 8.47429 3.67711 8.64346
upperback -9.60117 6.03662 1.32462
thorax -14.7485 1.75857 -4.49239
lowerneck -13.5442 8.2217 11.5181
upperneck 33.0536 9.31281 -5.98296
head 14.5496 4.1049 -3.00729
rclavicle 4.63541e-014 -3.57812e-015
rhumerus -43.0146 21.9067 -82.923
rradius 18.0259
rwrist -9.64284
rhand -22.1309 -19.8114
rfingers 7.12502
rthumb 4.2824 -49.748
lclavicle 4.63541e-014 -3.57812e-015
lhumerus -40.672 -22.5659 94.5855
lradius 42.6408
lwrist -3.11498
lhand -26.4618 33.2171
lfingers 7.12502
lthumb 0.0997426 63.1968
rfemur 5.70829 2.28788 42.7141
rtibia -8.70072
rfoot -19.0552 2.14135
rtoes 4.54784
lfemur -48.3231 5.30753 -32.7439
ltibia 24.7803
lfoot -13.7147 21.3619
ltoes -63.9781
455
root -21.0883 15.4841 4.90944 -169.877 -29.7269 -171.639
lowerback 8.42708 3.75332 8.83422
upperback -9.70423 6.16169 1.39274
thorax -14.8193 1.78557 -4.54006
lowerneck -13.489 8.17761 11.2075
upperneck 33.16 9.26184 -5.79357
head 14.5455 4.06311 -2.89173
rclavicle -1.11195e-014 -2.14687e-014
rhumerus -42.4151 21.0525 -81.8145
rradius 17.5739
rwrist -9.22799
rhand -22.8271 -20.1532
rfingers 7.12502
rthumb 3.61008 -50.1023
lclavicle -1.11195e-014 -2.14687e-014
lhumerus -40.4804 -22.7043 94.829
lradius 44.5888
lwrist -3.81765
lhand -26.234 31.9157
lfingers 7.12502
lthumb 0.319786 61.8952
rfemur 5.37889 2.21395 42.6697
rtibia -7.63808
rfoot -19.7295 2.92445
rtoes 4.84796
lfemur -46.2062 4.76564 -33.0512
ltibia 20.8629
lfoot -14.3515 21.7265
ltoes -63.4973
456
root -21.1529 15.4332 4.78294 -169.643 -29.3745 -171.472
lowerback 8.39643 3.84762 9.05362
upperback -9.82573 6.31414 1.42614
thorax -14.9125 1.81696 -4.64852
lowerneck -13.4725 8.09518 10.9112
upperneck 33.2525 9.11136 -5.50448
head 14.5282 3.99382 -2.75353
rclavicle 1.62308e-013 6.04305e-014
rhumerus -41.8543 20.0556 -80.8309
rradius 17.3223
rwrist -9.13685
rhand -23.7553 -20.5114
rfingers 7.12502
rthumb 2.71372 -50.4739
lclavicle 1.62308e-013 6.04305e-014
lhumerus -40.3571 -22.5005 94.7827
lradius 46.2714
lwrist -4.65189
lhand -25.7819 30.2259
lfingers 7.12502
lthumb 0.756438 60.2043
rfemur 5.13088 0.681425 42.5176
rtibia -6.53177
rfoot -19.7291 5.21351
rtoes 5.16819
lfemur -43.7958 3.31181 -32.3132
ltibia 16.7216
lfoot -14.9953 23.4876
ltoes -63.1771
457
root -21.2209 15.384 4.64813 -169.432 -28.9224 -171.315
lowerback 8.33585 3.93881 9.21612
upperback -9.92738 6.44671 1.41787
thorax -14.9638 1.84704 -4.76586
lowerneck -13.4576 7.97619 10.6699
upperneck 33.2367 8.89664 -5.21817
head 14.46 3.90749 -2.63429
rclavicle -9.28821e-014 -4.05521e-014
rhumerus -41.3104 19.054 -80.0615
rradius 17.2861
rwrist -9.37093
rhand -24.7694 -20.7644
rfingers 7.12502
rthumb 1.73426 -50.7371
lclavicle -9.28821e-014 -4.05521e-014
lhumerus -40.2352 -21.9221 94.3997
lradius 47.6101
lwrist -5.45352
lhand -25.254 28.2989
lfingers 7.12502
lthumb 1.26622 58.2749
rfemur 4.92231 -0.514186 42.3807
rtibia -5.36621
rfoot -19.6932 7.37267
rtoes 5.98794
lfemur -41.533 0.791651 -30.684
ltibia 13.0329
lfoot -16.495 26.2302
ltoes -62.7255
458
root -21.2884 15.3432 4.50708 -169.159 -28.4317 -171.301
lowerback 8.30777 4.02215 9.21581
upperback -10.0376 6.54355 1.32283
thorax -15.0544 1.87181 -4.8893
lowerneck -13.4499 7.79925 10.4663
upperneck 33.1165 8.59506 -4.94496
head 14.3418 3.79043 -2.53962
rclavicle 3.14328e-014 5.04913e-014
rhumerus -40.8469 18.0936 -79.5944
rradius 17.4807
rwrist -9.97101
rhand -25.7369 -20.9621
rfingers 7.12502
rthumb 0.799819 -50.9404
lclavicle 3.14328e-014 5.04913e-014
lhumerus -40.1656 -21.0495 93.7047
lradius 48.5466
lwrist -6.07367
lhand -24.8998 26.4833
lfingers 7.12502
lthumb 1.60834 56.4569
rfemur 4.87943 -0.874345 42.2638
rtibia -4.42369
rfoot -19.8043 8.64183
rtoes 6.38816
lfemur -39.8508 -2.56373 -28.6114
ltibia 10.422
lfoot -19.0569 29.2481
ltoes -61.5997
459
root -21.3554 15.3196 4.35987 -168.801 -27.9314 -171.529
lowerback 8.31948 4.08936 8.98131
upperback -10.1368 6.58319 1.12767
thorax -15.1732 1.89137 -4.99224
lowerneck -13.45 7.55954 10.2643
upperneck 32.8995 8.21576 -4.69992
head 14.178 3.63917 -2.46814
rclavicle -3.74585e-014 -3.45885e-014
rhumerus -40.4261 17.2467 -79.4763
rradius 17.8655
rwrist -10.9718
rhand -26.5981 -21.1611
rfingers 7.12502
rthumb -0.0318961 -51.1408
lclavicle -3.74585e-014 -3.45885e-014
lhumerus -40.1463 -19.9284 92.7242
lradius 49.0061
lwrist -6.34023
lhand -25.0008 25.1314
lfingers 7.12502
lthumb 1.5108 55.1058
rfemur 5.07857 -0.44622 42.0653
rtibia -3.88066
rfoot -20.0081 8.91063
rtoes 6.20545
lfemur -38.9302 -5.94935 -26.737
ltibia 9.20762
lfoot -22.3911 31.6639
ltoes -60.5499
460
root -21.4168 15.3177 4.20974 -168.296 -27.5016 -171.996
lowerback 8.3069 4.12439 8.48847
upperback -10.2292 6.53074 0.859759
thorax -15.2954 1.89482 -5.01829
lowerneck -13.4766 7.26207 10.0096
upperneck 32.617 7.77718 -4.47501
head 13.9862 3.4544 -2.40403
rclavicle 1.40578e-014 5.68524e-014
rhumerus -40.0653 16.642 -79.7263
rradius 18.4755
rwrist -12.4207
rhand -27.2761 -21.3124
rfingers 7.12502
rthumb -0.686722 -51.2911
lclavicle 1.40578e-014 5.68524e-014
lhumerus -40.1233 -18.6075 91.4954
lradius 48.9123
lwrist -6.15917
lhand -25.6622 24.6358
lfingers 7.12502
lthumb 0.872019 54.6138
rfemur 5.42826 0.674164 41.8194
rtibia -3.75829
rfoot -20.2896 8.10183
rtoes 5.2888
lfemur -38.8011 -8.33657 -25.6975
ltibia 9.40815
lfoot -25.6424 32.6848
ltoes -59.6062
461
root -21.4727 15.3397 4.0583 -167.683 -27.1616 -172.601
lowerback 8.24676 4.12605 7.83004
upperback -10.3069 6.39701 0.559696
thorax -15.3915 1.8806 -4.97031
lowerneck -13.5676 6.91753 9.66002
upperneck 32.3435 7.29011 -4.23964
head 13.8065 3.23697 -2.32625
rclavicle 5.99895e-014 5.1684e-015
rhumerus -39.7751 16.3881 -80.3347
rradius 19.3179
rwrist -14.269
rhand -27.7192 -21.361
rfingers 7.12502
rthumb -1.11472 -51.3379
lclavicle 5.99895e-014 5.1684e-015
lhumerus -40.0527 -17.1348 90.06
lradius 48.2214
lwrist -5.56464
lhand -26.8239 25.0571
lfingers 7.12502
lthumb -0.250003 55.0367
rfemur 5.88672 2.29372 41.6011
rtibia -4.00152
rfoot -20.5658 6.30363
rtoes 3.50556
lfemur -39.0628 -9.6311 -25.4349
ltibia 10.3856
lfoot -28.4016 32.4309
ltoes -59.2534
462
root -21.5255 15.3834 3.90658 -167.05 -26.8801 -173.199
lowerback 8.12123 4.09364 7.10924
upperback -10.3552 6.20201 0.302483
thorax -15.4281 1.85277 -4.82042
lowerneck -13.7084 6.55819 9.22544
upperneck 32.1286 6.8079 -4.02758
head 13.6653 3.00512 -2.24245
rclavicle -2.77429e-014 -1.07344e-014
rhumerus -39.6097 16.6868 -81.2856
rradius 20.4213
rwrist -16.3591
rhand -27.8692 -21.3129
rfingers 7.12502
rthumb -1.25956 -51.2889
lclavicle -2.77429e-014 -1.07344e-014
lhumerus -39.9009 -15.478 88.4641
lradius 46.9234
lwrist -4.71038
lhand -28.143 26.2701
lfingers 7.12502
lthumb -1.52404 56.2444
rfemur 6.45316 4.20681 41.4956
rtibia -4.53359
rfoot -20.7268 3.74466
rtoes 0.919686
lfemur -39.2361 -10.4235 -25.443
ltibia 11.2752
lfoot -31.2054 31.3054
ltoes -59.4304
463
root -21.5749 15.4417 3.75796 -166.452 -26.6366 -173.621
lowerback 7.88572 4.05263 6.57232
upperback -10.3733 6.01279 0.0568517
thorax -15.3392 1.81495 -4.74645
lowerneck -13.8881 6.18037 8.78228
upperneck 31.9696 6.29633 -3.81595
head 13.5593 2.75725 -2.16206
rclavicle -3.42566e-014 4.47887e-015
rhumerus -39.5497 17.3985 -82.5341
rradius 21.7348
rwrist -18.2722
rhand -27.6419 -21.2099
rfingers 7.12502
rthumb -1.04006 -51.1871
lclavicle -3.42566e-014 4.47887e-015
lhumerus -39.5889 -13.8139 86.6815
lradius 45.0618
lwrist -3.79431
lhand -29.2415 28.1422
lfingers 7.12502
lthumb -2.58499 58.1063
rfemur 7.03361 6.12517 41.5993
rtibia -5.21352
rfoot -20.6564 0.827767
rtoes -2.17259
lfemur -39.0715 -11.01 -25.4031
ltibia 11.4644
lfoot -34.3684 29.2471
ltoes -59.5327
464
root -21.6252 15.5081 3.61277 -165.95 -26.3213 -173.787
lowerback 7.61297 4.03694 6.2848
upperback -10.3929 5.89501 -0.159827
thorax -15.2005 1.78445 -4.78562
lowerneck -14.0896 5.80651 8.38639
upperneck 31.9182 5.77366 -3.62184
head 13.512 2.50378 -2.10006
rclavicle 3.64024e-014 -3.03147e-015
rhumerus -39.5909 18.505 -84.0135
rradius 23.1434
rwrist -19.6464
rhand -27.0773 -21.0151
rfingers 7.12502
rthumb -0.494735 -50.9943
lclavicle 3.64024e-014 -3.03147e-015
lhumerus -39.1793 -12.1289 84.7537
lradius 42.7291
lwrist -3.07203
lhand -29.8575 30.336
lfingers 7.12502
lthumb -3.17979 60.292
rfemur 7.59906 7.86907 41.8918
rtibia -5.89824
rfoot -20.2757 -2.04742
rtoes -5.51552
lfemur -38.471 -11.8741 -24.8986
ltibia 10.7217
lfoot -37.7939 26.9944
ltoes -59.3491
465
root -21.6792 15.577 3.47085 -165.576 -25.8375 -173.701
lowerback 7.32164 4.06386 6.23294
upperback -10.4081 5.87211 -0.342599
thorax -15.0167 1.77515 -4.93066
lowerneck -14.2884 5.47108 8.08785
upperneck 31.9618 5.28442 -3.46771
head 13.5178 2.26776 -2.06708
rclavicle 3.35294e-014 2.43511e-014
rhumerus -39.5802 19.9347 -85.6425
rradius 24.4393
rwrist -20.2046
rhand -26.276 -20.5791
rfingers 7.12502
rthumb 0.279129 -50.5587
lclavicle 3.35294e-014 2.43511e-014
lhumerus -38.7089 -10.3652 82.6897
lradius 40.0473
lwrist -2.79619
lhand -29.8708 32.4623
lfingers 7.12502
lthumb -3.19265 62.4181
rfemur 8.02767 8.94575 42.192
rtibia -6.32982
rfoot -19.48 -4.123
rtoes -8.69119
lfemur -37.5664 -13.0586 -23.8781
ltibia 9.35404
lfoot -40.91 25.4144
ltoes -58.1869
466
root -21.7376 15.6444 3.33148 -165.292 -25.1327 -173.47
lowerback 7.07376 4.14125 6.28515
upperback -10.4501 5.93794 -0.497573
thorax -14.8769 1.79258 -5.12152
lowerneck -14.4733 5.18701 7.85823
upperneck 32.1072 4.84167 -3.31777
head 13.5743 2.05578 -2.04272
rclavicle -2.75969e-014 -3.10104e-014
rhumerus -39.5307 21.7226 -87.3846
rradius 25.5727
rwrist -19.9698
rhand -25.3501 -19.9134
rfingers 7.12502
rthumb 1.17341 -49.8899
lclavicle -2.75969e-014 -3.10104e-014
lhumerus -38.2944 -8.47412 80.5274
lradius 37.1634
lwrist -3.17946
lhand -29.3025 34.2626
lfingers 7.12502
lthumb -2.64385 64.226
rfemur 8.33028 9.48136 42.395
rtibia -6.48456
rfoot -18.3462 -5.35554
rtoes -11.3631
lfemur -36.5239 -14.4733 -22.5238
ltibia 7.7542
lfoot -43.9924 24.4823
ltoes -56.2659
